<mxfile host="app.diagrams.net" agent="Mozilla/5.0 (Windows NT 10.0; Win64; x64) AppleWebKit/537.36 (KHTML, like Gecko) Chrome/140.0.0.0 Safari/537.36" version="28.2.1">
  <diagram name="페이지-1" id="I2Tp-xVVTpsO3wI6SStp">
    <mxGraphModel dx="1426" dy="743" grid="1" gridSize="10" guides="1" tooltips="1" connect="1" arrows="1" fold="1" page="1" pageScale="1" pageWidth="1654" pageHeight="2336" math="0" shadow="0">
      <root>
        <mxCell id="0" />
        <mxCell id="1" parent="0" />
        <mxCell id="ZPwJ77n2Wpf10ZM6JDmz-3" value="Dialog" style="rounded=0;whiteSpace=wrap;html=1;" parent="1" vertex="1">
          <mxGeometry x="600" y="200" width="200" height="40" as="geometry" />
        </mxCell>
        <mxCell id="ZPwJ77n2Wpf10ZM6JDmz-4" value="" style="rounded=0;whiteSpace=wrap;html=1;" parent="1" vertex="1">
          <mxGeometry x="600" y="240" width="200" height="280" as="geometry" />
        </mxCell>
        <mxCell id="ZPwJ77n2Wpf10ZM6JDmz-1" value="Timmer" style="rounded=0;whiteSpace=wrap;html=1;" parent="1" vertex="1">
          <mxGeometry x="622.5" y="440" width="150" height="40" as="geometry" />
        </mxCell>
        <mxCell id="ZPwJ77n2Wpf10ZM6JDmz-2" value="Callback" style="rounded=0;whiteSpace=wrap;html=1;" parent="1" vertex="1">
          <mxGeometry x="622.5" y="260" width="150" height="40" as="geometry" />
        </mxCell>
        <mxCell id="ZPwJ77n2Wpf10ZM6JDmz-5" value="" style="rounded=0;whiteSpace=wrap;html=1;" parent="1" vertex="1">
          <mxGeometry x="840" y="240" width="200" height="40" as="geometry" />
        </mxCell>
        <mxCell id="ZPwJ77n2Wpf10ZM6JDmz-7" style="edgeStyle=orthogonalEdgeStyle;rounded=0;orthogonalLoop=1;jettySize=auto;html=1;entryX=0.5;entryY=1;entryDx=0;entryDy=0;" parent="1" source="ZPwJ77n2Wpf10ZM6JDmz-6" target="ZPwJ77n2Wpf10ZM6JDmz-5" edge="1">
          <mxGeometry relative="1" as="geometry" />
        </mxCell>
        <mxCell id="ZPwJ77n2Wpf10ZM6JDmz-6" value="RS232-C" style="rounded=0;whiteSpace=wrap;html=1;" parent="1" vertex="1">
          <mxGeometry x="622.5" y="320" width="150" height="40" as="geometry" />
        </mxCell>
        <mxCell id="ZPwJ77n2Wpf10ZM6JDmz-8" value="Device" style="rounded=0;whiteSpace=wrap;html=1;" parent="1" vertex="1">
          <mxGeometry x="840" y="200" width="200" height="40" as="geometry" />
        </mxCell>
        <mxCell id="ZPwJ77n2Wpf10ZM6JDmz-9" value="Client" style="rounded=0;whiteSpace=wrap;html=1;" parent="1" vertex="1">
          <mxGeometry x="80" y="200" width="200" height="40" as="geometry" />
        </mxCell>
        <mxCell id="ZPwJ77n2Wpf10ZM6JDmz-10" value="" style="rounded=0;whiteSpace=wrap;html=1;" parent="1" vertex="1">
          <mxGeometry x="80" y="240" width="200" height="220" as="geometry" />
        </mxCell>
        <mxCell id="ZPwJ77n2Wpf10ZM6JDmz-11" value="class library" style="rounded=0;whiteSpace=wrap;html=1;" parent="1" vertex="1">
          <mxGeometry x="320" y="200" width="200" height="40" as="geometry" />
        </mxCell>
        <mxCell id="ZPwJ77n2Wpf10ZM6JDmz-12" value="" style="rounded=0;whiteSpace=wrap;html=1;" parent="1" vertex="1">
          <mxGeometry x="320" y="240" width="200" height="220" as="geometry" />
        </mxCell>
        <mxCell id="zZENEIvG0LnadRajqWwC-1" value="&lt;strike&gt;&lt;font style=&quot;font-size: 14px;&quot;&gt;btnCncl&lt;/font&gt;&lt;/strike&gt;" style="rounded=0;whiteSpace=wrap;html=1;" parent="1" vertex="1">
          <mxGeometry x="622.5" y="380" width="150" height="40" as="geometry" />
        </mxCell>
        <mxCell id="zZENEIvG0LnadRajqWwC-2" value="lates" style="text;html=1;align=center;verticalAlign=middle;whiteSpace=wrap;rounded=0;fontSize=14;" parent="1" vertex="1">
          <mxGeometry x="60" y="40" width="60" height="30" as="geometry" />
        </mxCell>
        <mxCell id="zZENEIvG0LnadRajqWwC-3" value="2025/09/13" style="text;html=1;align=center;verticalAlign=middle;whiteSpace=wrap;rounded=0;fontSize=14;" parent="1" vertex="1">
          <mxGeometry x="120" y="40" width="80" height="30" as="geometry" />
        </mxCell>
        <mxCell id="zZENEIvG0LnadRajqWwC-8" value="취소버튼을 없애면 무한정 대기하는 상황이 발생할 수&amp;nbsp; 있음&lt;div&gt;이를 방지하기 위해서&amp;nbsp; 타이머 설정한다면?&lt;/div&gt;" style="text;html=1;align=left;verticalAlign=middle;whiteSpace=wrap;rounded=0;fontSize=14;" parent="1" vertex="1">
          <mxGeometry x="80" y="680" width="390" height="30" as="geometry" />
        </mxCell>
        <mxCell id="9AJtDx6lGA5yL0fGM_cA-4" style="edgeStyle=orthogonalEdgeStyle;rounded=0;orthogonalLoop=1;jettySize=auto;html=1;" edge="1" parent="1" source="zZENEIvG0LnadRajqWwC-10">
          <mxGeometry relative="1" as="geometry">
            <mxPoint x="680" y="850" as="targetPoint" />
          </mxGeometry>
        </mxCell>
        <mxCell id="zZENEIvG0LnadRajqWwC-10" value="" style="rounded=0;whiteSpace=wrap;html=1;" parent="1" vertex="1">
          <mxGeometry x="440" y="760" width="160" height="180" as="geometry" />
        </mxCell>
        <mxCell id="zZENEIvG0LnadRajqWwC-25" style="edgeStyle=orthogonalEdgeStyle;rounded=0;orthogonalLoop=1;jettySize=auto;html=1;entryX=0;entryY=0.5;entryDx=0;entryDy=0;endArrow=none;endFill=0;" parent="1" source="zZENEIvG0LnadRajqWwC-11" target="zZENEIvG0LnadRajqWwC-10" edge="1">
          <mxGeometry relative="1" as="geometry">
            <Array as="points">
              <mxPoint x="270" y="780" />
              <mxPoint x="270" y="850" />
            </Array>
          </mxGeometry>
        </mxCell>
        <mxCell id="zZENEIvG0LnadRajqWwC-11" value="카드입력 중" style="rounded=0;whiteSpace=wrap;html=1;" parent="1" vertex="1">
          <mxGeometry x="80" y="760" width="120" height="40" as="geometry" />
        </mxCell>
        <mxCell id="zZENEIvG0LnadRajqWwC-24" style="edgeStyle=orthogonalEdgeStyle;rounded=0;orthogonalLoop=1;jettySize=auto;html=1;entryX=0;entryY=0.5;entryDx=0;entryDy=0;endArrow=none;endFill=0;" parent="1" source="zZENEIvG0LnadRajqWwC-12" target="zZENEIvG0LnadRajqWwC-10" edge="1">
          <mxGeometry relative="1" as="geometry">
            <Array as="points">
              <mxPoint x="270" y="830" />
              <mxPoint x="270" y="850" />
            </Array>
          </mxGeometry>
        </mxCell>
        <mxCell id="zZENEIvG0LnadRajqWwC-12" value="비밀번호 입력 중" style="rounded=0;whiteSpace=wrap;html=1;" parent="1" vertex="1">
          <mxGeometry x="80" y="810" width="120" height="40" as="geometry" />
        </mxCell>
        <mxCell id="zZENEIvG0LnadRajqWwC-23" style="edgeStyle=orthogonalEdgeStyle;rounded=0;orthogonalLoop=1;jettySize=auto;html=1;entryX=0;entryY=0.5;entryDx=0;entryDy=0;endArrow=none;endFill=0;" parent="1" source="zZENEIvG0LnadRajqWwC-18" target="zZENEIvG0LnadRajqWwC-10" edge="1">
          <mxGeometry relative="1" as="geometry">
            <mxPoint x="320" y="860" as="targetPoint" />
            <Array as="points">
              <mxPoint x="270" y="880" />
              <mxPoint x="270" y="850" />
            </Array>
          </mxGeometry>
        </mxCell>
        <mxCell id="zZENEIvG0LnadRajqWwC-18" value="휴대폰번호 입력 중" style="rounded=0;whiteSpace=wrap;html=1;" parent="1" vertex="1">
          <mxGeometry x="80" y="860" width="120" height="40" as="geometry" />
        </mxCell>
        <mxCell id="zZENEIvG0LnadRajqWwC-19" value="" style="rounded=0;whiteSpace=wrap;html=1;" parent="1" vertex="1">
          <mxGeometry x="260" y="1100" width="240" height="40" as="geometry" />
        </mxCell>
        <mxCell id="zZENEIvG0LnadRajqWwC-20" value="타이머 Reset" style="text;html=1;align=left;verticalAlign=middle;whiteSpace=wrap;rounded=0;fontSize=14;" parent="1" vertex="1">
          <mxGeometry x="270" y="1105" width="110" height="30" as="geometry" />
        </mxCell>
        <mxCell id="zZENEIvG0LnadRajqWwC-22" style="edgeStyle=orthogonalEdgeStyle;rounded=0;orthogonalLoop=1;jettySize=auto;html=1;entryX=0;entryY=0.5;entryDx=0;entryDy=0;endArrow=none;endFill=0;" parent="1" source="zZENEIvG0LnadRajqWwC-21" target="zZENEIvG0LnadRajqWwC-10" edge="1">
          <mxGeometry relative="1" as="geometry">
            <mxPoint x="320" y="860" as="targetPoint" />
            <Array as="points">
              <mxPoint x="270" y="930" />
              <mxPoint x="270" y="850" />
            </Array>
          </mxGeometry>
        </mxCell>
        <mxCell id="zZENEIvG0LnadRajqWwC-21" value="전자서명" style="rounded=0;whiteSpace=wrap;html=1;" parent="1" vertex="1">
          <mxGeometry x="80" y="910" width="120" height="40" as="geometry" />
        </mxCell>
        <mxCell id="9AJtDx6lGA5yL0fGM_cA-1" value="Time Out" style="text;html=1;align=center;verticalAlign=middle;whiteSpace=wrap;rounded=0;fontSize=14;" vertex="1" parent="1">
          <mxGeometry x="440" y="800" width="160" height="30" as="geometry" />
        </mxCell>
        <mxCell id="9AJtDx6lGA5yL0fGM_cA-2" value="Timer" style="rounded=0;whiteSpace=wrap;html=1;" vertex="1" parent="1">
          <mxGeometry x="440" y="760" width="160" height="40" as="geometry" />
        </mxCell>
        <mxCell id="9AJtDx6lGA5yL0fGM_cA-3" value="종료" style="rounded=0;whiteSpace=wrap;html=1;" vertex="1" parent="1">
          <mxGeometry x="720" y="760" width="160" height="180" as="geometry" />
        </mxCell>
        <mxCell id="9AJtDx6lGA5yL0fGM_cA-6" value="" style="rounded=0;whiteSpace=wrap;html=1;" vertex="1" parent="1">
          <mxGeometry x="950" y="1090" width="160" height="180" as="geometry" />
        </mxCell>
        <mxCell id="9AJtDx6lGA5yL0fGM_cA-7" value="Timeut Event" style="text;html=1;align=left;verticalAlign=middle;whiteSpace=wrap;rounded=0;fontSize=14;" vertex="1" parent="1">
          <mxGeometry x="975" y="1130" width="110" height="30" as="geometry" />
        </mxCell>
        <mxCell id="9AJtDx6lGA5yL0fGM_cA-8" value="Timer" style="rounded=0;whiteSpace=wrap;html=1;" vertex="1" parent="1">
          <mxGeometry x="950" y="1090" width="160" height="40" as="geometry" />
        </mxCell>
        <mxCell id="9AJtDx6lGA5yL0fGM_cA-9" value="Timer - reset" style="text;html=1;align=left;verticalAlign=middle;whiteSpace=wrap;rounded=0;fontSize=14;" vertex="1" parent="1">
          <mxGeometry x="310" y="810" width="110" height="30" as="geometry" />
        </mxCell>
      </root>
    </mxGraphModel>
  </diagram>
</mxfile>
